<?xml version="1.0" encoding="utf-8" standalone="no"?>
<!DOCTYPE svg PUBLIC "-//W3C//DTD SVG 1.1//EN"
  "http://www.w3.org/Graphics/SVG/1.1/DTD/svg11.dtd">
<svg xmlns:xlink="http://www.w3.org/1999/xlink" width="460.8pt" height="345.6pt" viewBox="0 0 460.8 345.6" xmlns="http://www.w3.org/2000/svg" version="1.1">
 <metadata>
  <rdf:RDF xmlns:dc="http://purl.org/dc/elements/1.1/" xmlns:cc="http://creativecommons.org/ns#" xmlns:rdf="http://www.w3.org/1999/02/22-rdf-syntax-ns#">
   <cc:Work>
    <dc:type rdf:resource="http://purl.org/dc/dcmitype/StillImage"/>
    <dc:date>2025-09-24T13:51:43.129701</dc:date>
    <dc:format>image/svg+xml</dc:format>
    <dc:creator>
     <cc:Agent>
      <dc:title>Matplotlib v3.5.2, https://matplotlib.org/</dc:title>
     </cc:Agent>
    </dc:creator>
   </cc:Work>
  </rdf:RDF>
 </metadata>
 <defs>
  <style type="text/css">*{stroke-linejoin: round; stroke-linecap: butt}</style>
 </defs>
 <g id="figure_1">
  <g id="patch_1">
   <path d="M 0 345.6 
L 460.8 345.6 
L 460.8 0 
L 0 0 
z
" style="fill: #ffffff"/>
  </g>
  <g id="axes_1">
   <g id="patch_2">
    <path d="M 51.049615 308.37226 
L 457.79976 308.37226 
L 457.79976 3.00024 
L 51.049615 3.00024 
z
" style="fill: #ffffff"/>
   </g>
   <g id="matplotlib.axis_1">
    <g id="xtick_1">
     <g id="line2d_1">
      <defs>
       <path id="m8cb0ab379f" d="M 0 0 
L 0 3.5 
" style="stroke: #000000; stroke-width: 0.8"/>
      </defs>
      <g>
       <use xlink:href="#m8cb0ab379f" x="69.501277" y="308.37226" style="stroke: #000000; stroke-width: 0.8"/>
      </g>
     </g>
     <g id="text_1">
      <!-- 0 -->
      <g transform="translate(66.320027 322.970697)scale(0.1 -0.1)">
       <defs>
        <path id="DejaVuSans-30" d="M 2034 4250 
Q 1547 4250 1301 3770 
Q 1056 3291 1056 2328 
Q 1056 1369 1301 889 
Q 1547 409 2034 409 
Q 2525 409 2770 889 
Q 3016 1369 3016 2328 
Q 3016 3291 2770 3770 
Q 2525 4250 2034 4250 
z
M 2034 4750 
Q 2819 4750 3233 4129 
Q 3647 3509 3647 2328 
Q 3647 1150 3233 529 
Q 2819 -91 2034 -91 
Q 1250 -91 836 529 
Q 422 1150 422 2328 
Q 422 3509 836 4129 
Q 1250 4750 2034 4750 
z
" transform="scale(0.015625)"/>
       </defs>
       <use xlink:href="#DejaVuSans-30"/>
      </g>
     </g>
    </g>
    <g id="xtick_2">
     <g id="line2d_2">
      <g>
       <use xlink:href="#m8cb0ab379f" x="143.463245" y="308.37226" style="stroke: #000000; stroke-width: 0.8"/>
      </g>
     </g>
     <g id="text_2">
      <!-- 200 -->
      <g transform="translate(133.919495 322.970697)scale(0.1 -0.1)">
       <defs>
        <path id="DejaVuSans-32" d="M 1228 531 
L 3431 531 
L 3431 0 
L 469 0 
L 469 531 
Q 828 903 1448 1529 
Q 2069 2156 2228 2338 
Q 2531 2678 2651 2914 
Q 2772 3150 2772 3378 
Q 2772 3750 2511 3984 
Q 2250 4219 1831 4219 
Q 1534 4219 1204 4116 
Q 875 4013 500 3803 
L 500 4441 
Q 881 4594 1212 4672 
Q 1544 4750 1819 4750 
Q 2544 4750 2975 4387 
Q 3406 4025 3406 3419 
Q 3406 3131 3298 2873 
Q 3191 2616 2906 2266 
Q 2828 2175 2409 1742 
Q 1991 1309 1228 531 
z
" transform="scale(0.015625)"/>
       </defs>
       <use xlink:href="#DejaVuSans-32"/>
       <use xlink:href="#DejaVuSans-30" x="63.623047"/>
       <use xlink:href="#DejaVuSans-30" x="127.246094"/>
      </g>
     </g>
    </g>
    <g id="xtick_3">
     <g id="line2d_3">
      <g>
       <use xlink:href="#m8cb0ab379f" x="217.425213" y="308.37226" style="stroke: #000000; stroke-width: 0.8"/>
      </g>
     </g>
     <g id="text_3">
      <!-- 400 -->
      <g transform="translate(207.881463 322.970697)scale(0.1 -0.1)">
       <defs>
        <path id="DejaVuSans-34" d="M 2419 4116 
L 825 1625 
L 2419 1625 
L 2419 4116 
z
M 2253 4666 
L 3047 4666 
L 3047 1625 
L 3713 1625 
L 3713 1100 
L 3047 1100 
L 3047 0 
L 2419 0 
L 2419 1100 
L 313 1100 
L 313 1709 
L 2253 4666 
z
" transform="scale(0.015625)"/>
       </defs>
       <use xlink:href="#DejaVuSans-34"/>
       <use xlink:href="#DejaVuSans-30" x="63.623047"/>
       <use xlink:href="#DejaVuSans-30" x="127.246094"/>
      </g>
     </g>
    </g>
    <g id="xtick_4">
     <g id="line2d_4">
      <g>
       <use xlink:href="#m8cb0ab379f" x="291.387181" y="308.37226" style="stroke: #000000; stroke-width: 0.8"/>
      </g>
     </g>
     <g id="text_4">
      <!-- 600 -->
      <g transform="translate(281.843431 322.970697)scale(0.1 -0.1)">
       <defs>
        <path id="DejaVuSans-36" d="M 2113 2584 
Q 1688 2584 1439 2293 
Q 1191 2003 1191 1497 
Q 1191 994 1439 701 
Q 1688 409 2113 409 
Q 2538 409 2786 701 
Q 3034 994 3034 1497 
Q 3034 2003 2786 2293 
Q 2538 2584 2113 2584 
z
M 3366 4563 
L 3366 3988 
Q 3128 4100 2886 4159 
Q 2644 4219 2406 4219 
Q 1781 4219 1451 3797 
Q 1122 3375 1075 2522 
Q 1259 2794 1537 2939 
Q 1816 3084 2150 3084 
Q 2853 3084 3261 2657 
Q 3669 2231 3669 1497 
Q 3669 778 3244 343 
Q 2819 -91 2113 -91 
Q 1303 -91 875 529 
Q 447 1150 447 2328 
Q 447 3434 972 4092 
Q 1497 4750 2381 4750 
Q 2619 4750 2861 4703 
Q 3103 4656 3366 4563 
z
" transform="scale(0.015625)"/>
       </defs>
       <use xlink:href="#DejaVuSans-36"/>
       <use xlink:href="#DejaVuSans-30" x="63.623047"/>
       <use xlink:href="#DejaVuSans-30" x="127.246094"/>
      </g>
     </g>
    </g>
    <g id="xtick_5">
     <g id="line2d_5">
      <g>
       <use xlink:href="#m8cb0ab379f" x="365.349149" y="308.37226" style="stroke: #000000; stroke-width: 0.8"/>
      </g>
     </g>
     <g id="text_5">
      <!-- 800 -->
      <g transform="translate(355.805399 322.970697)scale(0.1 -0.1)">
       <defs>
        <path id="DejaVuSans-38" d="M 2034 2216 
Q 1584 2216 1326 1975 
Q 1069 1734 1069 1313 
Q 1069 891 1326 650 
Q 1584 409 2034 409 
Q 2484 409 2743 651 
Q 3003 894 3003 1313 
Q 3003 1734 2745 1975 
Q 2488 2216 2034 2216 
z
M 1403 2484 
Q 997 2584 770 2862 
Q 544 3141 544 3541 
Q 544 4100 942 4425 
Q 1341 4750 2034 4750 
Q 2731 4750 3128 4425 
Q 3525 4100 3525 3541 
Q 3525 3141 3298 2862 
Q 3072 2584 2669 2484 
Q 3125 2378 3379 2068 
Q 3634 1759 3634 1313 
Q 3634 634 3220 271 
Q 2806 -91 2034 -91 
Q 1263 -91 848 271 
Q 434 634 434 1313 
Q 434 1759 690 2068 
Q 947 2378 1403 2484 
z
M 1172 3481 
Q 1172 3119 1398 2916 
Q 1625 2713 2034 2713 
Q 2441 2713 2670 2916 
Q 2900 3119 2900 3481 
Q 2900 3844 2670 4047 
Q 2441 4250 2034 4250 
Q 1625 4250 1398 4047 
Q 1172 3844 1172 3481 
z
" transform="scale(0.015625)"/>
       </defs>
       <use xlink:href="#DejaVuSans-38"/>
       <use xlink:href="#DejaVuSans-30" x="63.623047"/>
       <use xlink:href="#DejaVuSans-30" x="127.246094"/>
      </g>
     </g>
    </g>
    <g id="xtick_6">
     <g id="line2d_6">
      <g>
       <use xlink:href="#m8cb0ab379f" x="439.311117" y="308.37226" style="stroke: #000000; stroke-width: 0.8"/>
      </g>
     </g>
     <g id="text_6">
      <!-- 1000 -->
      <g transform="translate(426.586117 322.970697)scale(0.1 -0.1)">
       <defs>
        <path id="DejaVuSans-31" d="M 794 531 
L 1825 531 
L 1825 4091 
L 703 3866 
L 703 4441 
L 1819 4666 
L 2450 4666 
L 2450 531 
L 3481 531 
L 3481 0 
L 794 0 
L 794 531 
z
" transform="scale(0.015625)"/>
       </defs>
       <use xlink:href="#DejaVuSans-31"/>
       <use xlink:href="#DejaVuSans-30" x="63.623047"/>
       <use xlink:href="#DejaVuSans-30" x="127.246094"/>
       <use xlink:href="#DejaVuSans-30" x="190.869141"/>
      </g>
     </g>
    </g>
    <g id="text_7">
     <!-- Time [kyr] -->
     <g transform="translate(218.790312 339.688197)scale(0.14 -0.14)">
      <defs>
       <path id="DejaVuSans-54" d="M -19 4666 
L 3928 4666 
L 3928 4134 
L 2272 4134 
L 2272 0 
L 1638 0 
L 1638 4134 
L -19 4134 
L -19 4666 
z
" transform="scale(0.015625)"/>
       <path id="DejaVuSans-69" d="M 603 3500 
L 1178 3500 
L 1178 0 
L 603 0 
L 603 3500 
z
M 603 4863 
L 1178 4863 
L 1178 4134 
L 603 4134 
L 603 4863 
z
" transform="scale(0.015625)"/>
       <path id="DejaVuSans-6d" d="M 3328 2828 
Q 3544 3216 3844 3400 
Q 4144 3584 4550 3584 
Q 5097 3584 5394 3201 
Q 5691 2819 5691 2113 
L 5691 0 
L 5113 0 
L 5113 2094 
Q 5113 2597 4934 2840 
Q 4756 3084 4391 3084 
Q 3944 3084 3684 2787 
Q 3425 2491 3425 1978 
L 3425 0 
L 2847 0 
L 2847 2094 
Q 2847 2600 2669 2842 
Q 2491 3084 2119 3084 
Q 1678 3084 1418 2786 
Q 1159 2488 1159 1978 
L 1159 0 
L 581 0 
L 581 3500 
L 1159 3500 
L 1159 2956 
Q 1356 3278 1631 3431 
Q 1906 3584 2284 3584 
Q 2666 3584 2933 3390 
Q 3200 3197 3328 2828 
z
" transform="scale(0.015625)"/>
       <path id="DejaVuSans-65" d="M 3597 1894 
L 3597 1613 
L 953 1613 
Q 991 1019 1311 708 
Q 1631 397 2203 397 
Q 2534 397 2845 478 
Q 3156 559 3463 722 
L 3463 178 
Q 3153 47 2828 -22 
Q 2503 -91 2169 -91 
Q 1331 -91 842 396 
Q 353 884 353 1716 
Q 353 2575 817 3079 
Q 1281 3584 2069 3584 
Q 2775 3584 3186 3129 
Q 3597 2675 3597 1894 
z
M 3022 2063 
Q 3016 2534 2758 2815 
Q 2500 3097 2075 3097 
Q 1594 3097 1305 2825 
Q 1016 2553 972 2059 
L 3022 2063 
z
" transform="scale(0.015625)"/>
       <path id="DejaVuSans-20" transform="scale(0.015625)"/>
       <path id="DejaVuSans-5b" d="M 550 4863 
L 1875 4863 
L 1875 4416 
L 1125 4416 
L 1125 -397 
L 1875 -397 
L 1875 -844 
L 550 -844 
L 550 4863 
z
" transform="scale(0.015625)"/>
       <path id="DejaVuSans-6b" d="M 581 4863 
L 1159 4863 
L 1159 1991 
L 2875 3500 
L 3609 3500 
L 1753 1863 
L 3688 0 
L 2938 0 
L 1159 1709 
L 1159 0 
L 581 0 
L 581 4863 
z
" transform="scale(0.015625)"/>
       <path id="DejaVuSans-79" d="M 2059 -325 
Q 1816 -950 1584 -1140 
Q 1353 -1331 966 -1331 
L 506 -1331 
L 506 -850 
L 844 -850 
Q 1081 -850 1212 -737 
Q 1344 -625 1503 -206 
L 1606 56 
L 191 3500 
L 800 3500 
L 1894 763 
L 2988 3500 
L 3597 3500 
L 2059 -325 
z
" transform="scale(0.015625)"/>
       <path id="DejaVuSans-72" d="M 2631 2963 
Q 2534 3019 2420 3045 
Q 2306 3072 2169 3072 
Q 1681 3072 1420 2755 
Q 1159 2438 1159 1844 
L 1159 0 
L 581 0 
L 581 3500 
L 1159 3500 
L 1159 2956 
Q 1341 3275 1631 3429 
Q 1922 3584 2338 3584 
Q 2397 3584 2469 3576 
Q 2541 3569 2628 3553 
L 2631 2963 
z
" transform="scale(0.015625)"/>
       <path id="DejaVuSans-5d" d="M 1947 4863 
L 1947 -844 
L 622 -844 
L 622 -397 
L 1369 -397 
L 1369 4416 
L 622 4416 
L 622 4863 
L 1947 4863 
z
" transform="scale(0.015625)"/>
      </defs>
      <use xlink:href="#DejaVuSans-54"/>
      <use xlink:href="#DejaVuSans-69" x="57.958984"/>
      <use xlink:href="#DejaVuSans-6d" x="85.742188"/>
      <use xlink:href="#DejaVuSans-65" x="183.154297"/>
      <use xlink:href="#DejaVuSans-20" x="244.677734"/>
      <use xlink:href="#DejaVuSans-5b" x="276.464844"/>
      <use xlink:href="#DejaVuSans-6b" x="315.478516"/>
      <use xlink:href="#DejaVuSans-79" x="369.763672"/>
      <use xlink:href="#DejaVuSans-72" x="428.943359"/>
      <use xlink:href="#DejaVuSans-5d" x="470.056641"/>
     </g>
    </g>
   </g>
   <g id="matplotlib.axis_2">
    <g id="ytick_1">
     <g id="line2d_7">
      <defs>
       <path id="m5e9976a9d2" d="M 0 0 
L -3.5 0 
" style="stroke: #000000; stroke-width: 0.8"/>
      </defs>
      <g>
       <use xlink:href="#m5e9976a9d2" x="51.049615" y="266.228291" style="stroke: #000000; stroke-width: 0.8"/>
      </g>
     </g>
     <g id="text_8">
      <!-- $\mathdefault{10^{-1}}$ -->
      <g transform="translate(20.549615 270.02751)scale(0.1 -0.1)">
       <defs>
        <path id="DejaVuSans-2212" d="M 678 2272 
L 4684 2272 
L 4684 1741 
L 678 1741 
L 678 2272 
z
" transform="scale(0.015625)"/>
       </defs>
       <use xlink:href="#DejaVuSans-31" transform="translate(0 0.684375)"/>
       <use xlink:href="#DejaVuSans-30" transform="translate(63.623047 0.684375)"/>
       <use xlink:href="#DejaVuSans-2212" transform="translate(128.203125 38.965625)scale(0.7)"/>
       <use xlink:href="#DejaVuSans-31" transform="translate(186.855469 38.965625)scale(0.7)"/>
      </g>
     </g>
    </g>
    <g id="ytick_2">
     <g id="line2d_8">
      <g>
       <use xlink:href="#m5e9976a9d2" x="51.049615" y="199.70998" style="stroke: #000000; stroke-width: 0.8"/>
      </g>
     </g>
     <g id="text_9">
      <!-- $\mathdefault{10^{1}}$ -->
      <g transform="translate(26.449615 203.509199)scale(0.1 -0.1)">
       <use xlink:href="#DejaVuSans-31" transform="translate(0 0.684375)"/>
       <use xlink:href="#DejaVuSans-30" transform="translate(63.623047 0.684375)"/>
       <use xlink:href="#DejaVuSans-31" transform="translate(128.203125 38.965625)scale(0.7)"/>
      </g>
     </g>
    </g>
    <g id="ytick_3">
     <g id="line2d_9">
      <g>
       <use xlink:href="#m5e9976a9d2" x="51.049615" y="133.191669" style="stroke: #000000; stroke-width: 0.8"/>
      </g>
     </g>
     <g id="text_10">
      <!-- $\mathdefault{10^{3}}$ -->
      <g transform="translate(26.449615 136.990888)scale(0.1 -0.1)">
       <defs>
        <path id="DejaVuSans-33" d="M 2597 2516 
Q 3050 2419 3304 2112 
Q 3559 1806 3559 1356 
Q 3559 666 3084 287 
Q 2609 -91 1734 -91 
Q 1441 -91 1130 -33 
Q 819 25 488 141 
L 488 750 
Q 750 597 1062 519 
Q 1375 441 1716 441 
Q 2309 441 2620 675 
Q 2931 909 2931 1356 
Q 2931 1769 2642 2001 
Q 2353 2234 1838 2234 
L 1294 2234 
L 1294 2753 
L 1863 2753 
Q 2328 2753 2575 2939 
Q 2822 3125 2822 3475 
Q 2822 3834 2567 4026 
Q 2313 4219 1838 4219 
Q 1578 4219 1281 4162 
Q 984 4106 628 3988 
L 628 4550 
Q 988 4650 1302 4700 
Q 1616 4750 1894 4750 
Q 2613 4750 3031 4423 
Q 3450 4097 3450 3541 
Q 3450 3153 3228 2886 
Q 3006 2619 2597 2516 
z
" transform="scale(0.015625)"/>
       </defs>
       <use xlink:href="#DejaVuSans-31" transform="translate(0 0.765625)"/>
       <use xlink:href="#DejaVuSans-30" transform="translate(63.623047 0.765625)"/>
       <use xlink:href="#DejaVuSans-33" transform="translate(128.203125 39.046875)scale(0.7)"/>
      </g>
     </g>
    </g>
    <g id="ytick_4">
     <g id="line2d_10">
      <g>
       <use xlink:href="#m5e9976a9d2" x="51.049615" y="66.673358" style="stroke: #000000; stroke-width: 0.8"/>
      </g>
     </g>
     <g id="text_11">
      <!-- $\mathdefault{10^{5}}$ -->
      <g transform="translate(26.449615 70.472577)scale(0.1 -0.1)">
       <defs>
        <path id="DejaVuSans-35" d="M 691 4666 
L 3169 4666 
L 3169 4134 
L 1269 4134 
L 1269 2991 
Q 1406 3038 1543 3061 
Q 1681 3084 1819 3084 
Q 2600 3084 3056 2656 
Q 3513 2228 3513 1497 
Q 3513 744 3044 326 
Q 2575 -91 1722 -91 
Q 1428 -91 1123 -41 
Q 819 9 494 109 
L 494 744 
Q 775 591 1075 516 
Q 1375 441 1709 441 
Q 2250 441 2565 725 
Q 2881 1009 2881 1497 
Q 2881 1984 2565 2268 
Q 2250 2553 1709 2553 
Q 1456 2553 1204 2497 
Q 953 2441 691 2322 
L 691 4666 
z
" transform="scale(0.015625)"/>
       </defs>
       <use xlink:href="#DejaVuSans-31" transform="translate(0 0.684375)"/>
       <use xlink:href="#DejaVuSans-30" transform="translate(63.623047 0.684375)"/>
       <use xlink:href="#DejaVuSans-35" transform="translate(128.203125 38.965625)scale(0.7)"/>
      </g>
     </g>
    </g>
    <g id="text_12">
     <!-- Partial Pressure [Pa] -->
     <g transform="translate(13.638052 225.672031)rotate(-90)scale(0.14 -0.14)">
      <defs>
       <path id="DejaVuSans-50" d="M 1259 4147 
L 1259 2394 
L 2053 2394 
Q 2494 2394 2734 2622 
Q 2975 2850 2975 3272 
Q 2975 3691 2734 3919 
Q 2494 4147 2053 4147 
L 1259 4147 
z
M 628 4666 
L 2053 4666 
Q 2838 4666 3239 4311 
Q 3641 3956 3641 3272 
Q 3641 2581 3239 2228 
Q 2838 1875 2053 1875 
L 1259 1875 
L 1259 0 
L 628 0 
L 628 4666 
z
" transform="scale(0.015625)"/>
       <path id="DejaVuSans-61" d="M 2194 1759 
Q 1497 1759 1228 1600 
Q 959 1441 959 1056 
Q 959 750 1161 570 
Q 1363 391 1709 391 
Q 2188 391 2477 730 
Q 2766 1069 2766 1631 
L 2766 1759 
L 2194 1759 
z
M 3341 1997 
L 3341 0 
L 2766 0 
L 2766 531 
Q 2569 213 2275 61 
Q 1981 -91 1556 -91 
Q 1019 -91 701 211 
Q 384 513 384 1019 
Q 384 1609 779 1909 
Q 1175 2209 1959 2209 
L 2766 2209 
L 2766 2266 
Q 2766 2663 2505 2880 
Q 2244 3097 1772 3097 
Q 1472 3097 1187 3025 
Q 903 2953 641 2809 
L 641 3341 
Q 956 3463 1253 3523 
Q 1550 3584 1831 3584 
Q 2591 3584 2966 3190 
Q 3341 2797 3341 1997 
z
" transform="scale(0.015625)"/>
       <path id="DejaVuSans-74" d="M 1172 4494 
L 1172 3500 
L 2356 3500 
L 2356 3053 
L 1172 3053 
L 1172 1153 
Q 1172 725 1289 603 
Q 1406 481 1766 481 
L 2356 481 
L 2356 0 
L 1766 0 
Q 1100 0 847 248 
Q 594 497 594 1153 
L 594 3053 
L 172 3053 
L 172 3500 
L 594 3500 
L 594 4494 
L 1172 4494 
z
" transform="scale(0.015625)"/>
       <path id="DejaVuSans-6c" d="M 603 4863 
L 1178 4863 
L 1178 0 
L 603 0 
L 603 4863 
z
" transform="scale(0.015625)"/>
       <path id="DejaVuSans-73" d="M 2834 3397 
L 2834 2853 
Q 2591 2978 2328 3040 
Q 2066 3103 1784 3103 
Q 1356 3103 1142 2972 
Q 928 2841 928 2578 
Q 928 2378 1081 2264 
Q 1234 2150 1697 2047 
L 1894 2003 
Q 2506 1872 2764 1633 
Q 3022 1394 3022 966 
Q 3022 478 2636 193 
Q 2250 -91 1575 -91 
Q 1294 -91 989 -36 
Q 684 19 347 128 
L 347 722 
Q 666 556 975 473 
Q 1284 391 1588 391 
Q 1994 391 2212 530 
Q 2431 669 2431 922 
Q 2431 1156 2273 1281 
Q 2116 1406 1581 1522 
L 1381 1569 
Q 847 1681 609 1914 
Q 372 2147 372 2553 
Q 372 3047 722 3315 
Q 1072 3584 1716 3584 
Q 2034 3584 2315 3537 
Q 2597 3491 2834 3397 
z
" transform="scale(0.015625)"/>
       <path id="DejaVuSans-75" d="M 544 1381 
L 544 3500 
L 1119 3500 
L 1119 1403 
Q 1119 906 1312 657 
Q 1506 409 1894 409 
Q 2359 409 2629 706 
Q 2900 1003 2900 1516 
L 2900 3500 
L 3475 3500 
L 3475 0 
L 2900 0 
L 2900 538 
Q 2691 219 2414 64 
Q 2138 -91 1772 -91 
Q 1169 -91 856 284 
Q 544 659 544 1381 
z
M 1991 3584 
L 1991 3584 
z
" transform="scale(0.015625)"/>
      </defs>
      <use xlink:href="#DejaVuSans-50"/>
      <use xlink:href="#DejaVuSans-61" x="55.802734"/>
      <use xlink:href="#DejaVuSans-72" x="117.082031"/>
      <use xlink:href="#DejaVuSans-74" x="158.195312"/>
      <use xlink:href="#DejaVuSans-69" x="197.404297"/>
      <use xlink:href="#DejaVuSans-61" x="225.1875"/>
      <use xlink:href="#DejaVuSans-6c" x="286.466797"/>
      <use xlink:href="#DejaVuSans-20" x="314.25"/>
      <use xlink:href="#DejaVuSans-50" x="346.037109"/>
      <use xlink:href="#DejaVuSans-72" x="404.589844"/>
      <use xlink:href="#DejaVuSans-65" x="443.453125"/>
      <use xlink:href="#DejaVuSans-73" x="504.976562"/>
      <use xlink:href="#DejaVuSans-73" x="557.076172"/>
      <use xlink:href="#DejaVuSans-75" x="609.175781"/>
      <use xlink:href="#DejaVuSans-72" x="672.554688"/>
      <use xlink:href="#DejaVuSans-65" x="711.417969"/>
      <use xlink:href="#DejaVuSans-20" x="772.941406"/>
      <use xlink:href="#DejaVuSans-5b" x="804.728516"/>
      <use xlink:href="#DejaVuSans-50" x="843.742188"/>
      <use xlink:href="#DejaVuSans-61" x="899.544922"/>
      <use xlink:href="#DejaVuSans-5d" x="960.824219"/>
     </g>
    </g>
   </g>
   <g id="line2d_11">
    <path d="M 69.538258 141.039093 
L 69.908401 140.928485 
L 70.278544 139.075527 
L 70.648687 138.29838 
L 71.01883 137.801599 
L 71.759116 137.279478 
L 72.869545 136.814106 
L 75.460546 136.321885 
L 89.155837 135.403701 
L 119.507563 134.287691 
L 152.45029 133.458125 
L 154.301005 133.42595 
L 169.847012 133.100425 
L 172.438013 133.058462 
L 178.730444 132.92584 
L 180.951302 132.893675 
L 186.133304 132.79213 
L 188.724305 132.761798 
L 193.906307 132.649431 
L 196.497308 132.613953 
L 200.568881 132.538068 
L 203.159882 132.497396 
L 206.861312 132.431794 
L 209.822456 132.393884 
L 213.523886 132.317356 
L 216.855173 132.279206 
L 220.18646 132.21122 
L 223.517747 132.165719 
L 226.849034 132.095119 
L 230.550464 132.053309 
L 233.511608 131.993401 
L 237.583181 131.948585 
L 239.804039 131.898512 
L 243.875612 131.84483 
L 246.466613 131.794297 
L 251.278472 131.738355 
L 253.869473 131.681271 
L 257.941046 131.636265 
L 260.161904 131.599842 
L 264.60362 131.547313 
L 266.824478 131.505023 
L 273.116909 131.421659 
L 274.597481 131.397971 
L 280.149626 131.324405 
L 282.370484 131.269936 
L 291.253916 131.171492 
L 292.734488 131.140979 
L 303.098492 130.998093 
L 322.345928 130.751678 
L 398.225244 129.824653 
L 400.446102 129.816804 
L 403.407246 129.770172 
L 405.628104 129.756621 
L 408.589248 129.699946 
L 411.180249 129.695265 
L 413.77125 129.652912 
L 416.362251 129.637769 
L 418.953252 129.590011 
L 421.544253 129.573427 
L 423.765111 129.542353 
L 426.726255 129.52756 
L 428.947113 129.490361 
L 431.908257 129.468644 
L 434.129115 129.425362 
L 437.460402 129.405809 
L 439.311117 129.335566 
L 439.311117 129.335566 
" clip-path="url(#pe6ab2107a2)" style="fill: none; stroke: #add8e6; stroke-width: 1.5; stroke-linecap: square"/>
   </g>
   <g id="line2d_12">
    <path d="M 69.538258 220.051748 
L 69.908401 182.604964 
L 70.278544 179.291254 
L 71.388973 163.683426 
L 72.499402 151.777778 
L 73.979974 139.087658 
L 75.830689 125.415537 
L 79.532119 98.535453 
L 82.12312 80.178265 
L 83.233549 74.024284 
L 83.603692 72.274128 
L 83.973835 71.659492 
L 85.084264 67.231753 
L 86.194693 63.75165 
L 86.564836 63.3922 
L 87.675265 60.54852 
L 88.045408 59.714663 
L 88.415551 59.449615 
L 89.52598 57.2005 
L 89.896123 56.535915 
L 90.266266 56.327382 
L 91.006552 55.072791 
L 91.376695 54.877321 
L 92.487124 53.189984 
L 92.857267 53.025627 
L 93.597553 52.007593 
L 93.967696 51.856199 
L 94.707982 50.910987 
L 95.078125 50.768111 
L 95.818411 49.887571 
L 96.188554 49.761542 
L 96.558697 49.336572 
L 96.92884 49.205112 
L 97.669126 48.406605 
L 98.039269 48.286434 
L 98.409412 47.903187 
L 99.519841 47.512007 
L 99.889984 46.89263 
L 101.000413 46.524059 
L 101.370556 45.939523 
L 102.480985 45.593376 
L 102.851128 45.04827 
L 103.961557 44.721873 
L 104.3317 44.211847 
L 105.812272 43.797527 
L 106.182415 43.309511 
L 107.662987 42.912375 
L 108.03313 42.450409 
L 109.883845 41.965547 
L 110.253988 41.530342 
L 112.104703 41.066108 
L 112.474846 40.654029 
L 114.695704 40.116413 
L 115.065847 39.727513 
L 117.656848 39.123063 
L 118.026991 38.757817 
L 121.728421 37.91653 
L 122.098564 37.575274 
L 126.54028 36.615904 
L 137.64457 34.142349 
L 144.307144 32.859929 
L 144.677287 32.974101 
L 148.74886 32.155032 
L 149.119003 32.260469 
L 152.45029 31.594748 
L 152.820433 31.693198 
L 155.411434 31.177563 
L 155.781577 31.271621 
L 158.002435 30.828258 
L 158.372578 30.916469 
L 160.223293 30.545843 
L 160.593436 30.631174 
L 162.444151 30.259001 
L 162.814294 30.341086 
L 164.294866 30.04261 
L 164.665009 30.122399 
L 166.145582 29.820452 
L 166.515725 29.89816 
L 167.996297 29.597013 
L 168.36644 29.67313 
L 169.847012 29.375768 
L 170.217155 29.448965 
L 171.327584 29.224919 
L 171.697727 29.29685 
L 172.808156 29.068484 
L 173.178299 29.137964 
L 174.288728 28.909724 
L 174.658871 28.977669 
L 175.7693 28.748768 
L 176.139443 28.815354 
L 177.249872 28.588566 
L 177.620015 28.654951 
L 178.730444 28.428618 
L 179.100587 28.492847 
L 179.840873 28.34148 
L 180.211016 28.403519 
L 181.321445 28.175004 
L 181.691588 28.236776 
L 182.431874 28.08454 
L 182.802017 28.143571 
L 183.912446 27.916085 
L 184.282589 27.976409 
L 185.022875 27.824659 
L 185.393018 27.88251 
L 186.133304 27.729527 
L 186.503447 27.786217 
L 187.243733 27.632147 
L 187.613876 27.687164 
L 188.354162 27.531192 
L 188.724305 27.585604 
L 189.464591 27.430137 
L 189.834734 27.483226 
L 190.57502 27.328009 
L 190.945163 27.380986 
L 191.685449 27.225907 
L 192.055592 27.27757 
L 192.795878 27.123438 
L 193.166021 27.175276 
L 193.906307 27.021868 
L 194.27645 27.072757 
L 195.016736 26.919946 
L 195.386879 26.970883 
L 195.757022 26.893412 
L 196.127165 26.940594 
L 196.867451 26.78381 
L 197.237594 26.831783 
L 197.97788 26.678098 
L 198.348023 26.725741 
L 198.718166 26.647248 
L 199.088309 26.692573 
L 199.828595 26.536099 
L 200.198738 26.581519 
L 200.568881 26.503276 
L 200.939024 26.545738 
L 201.67931 26.389309 
L 202.049453 26.433214 
L 202.419596 26.354659 
L 202.789739 26.396402 
L 203.530025 26.239693 
L 203.900168 26.282166 
L 204.270311 26.203759 
L 204.640454 26.244525 
L 205.38074 26.089126 
L 205.750883 26.131704 
L 206.121026 26.053508 
L 206.491169 26.094337 
L 206.861312 26.014002 
L 207.231455 26.052326 
L 207.971741 25.894885 
L 208.341884 25.935381 
L 208.712027 25.856992 
L 209.08217 25.896194 
L 209.452313 25.816768 
L 209.822456 25.853853 
L 210.192599 25.772815 
L 210.562742 25.808929 
L 211.303028 25.650205 
L 211.673171 25.687906 
L 212.043314 25.609664 
L 212.413457 25.646473 
L 212.7836 25.567275 
L 213.153743 25.602131 
L 213.523886 25.521873 
L 213.894029 25.556814 
L 214.264172 25.47618 
L 214.634315 25.509608 
L 215.004458 25.42793 
L 215.374601 25.460874 
L 216.48503 25.328129 
L 216.855173 25.359582 
L 217.965602 25.226067 
L 218.335745 25.256422 
L 219.446174 25.12226 
L 219.816317 25.152473 
L 220.926746 25.018085 
L 222.037175 24.994603 
L 223.147604 24.860226 
L 223.88789 24.808193 
L 224.998319 24.784798 
L 226.108748 24.653066 
L 227.219177 24.629172 
L 228.329606 24.497948 
L 229.069892 24.550724 
L 230.180321 24.407617 
L 230.920607 24.354272 
L 232.401179 24.343956 
L 233.511608 24.199931 
L 234.622037 24.168971 
L 235.732466 24.125047 
L 236.842895 23.985095 
L 237.583181 24.028309 
L 238.69361 23.883318 
L 239.804039 23.838624 
L 241.284611 23.812189 
L 242.39504 23.666166 
L 243.875612 23.638285 
L 244.615898 23.575605 
L 246.09647 23.543478 
L 246.836756 23.473875 
L 247.947185 23.418875 
L 248.687471 23.352281 
L 250.168043 23.315807 
L 250.908329 23.243909 
L 252.388901 23.198909 
L 253.129187 23.127612 
L 254.609759 23.079757 
L 255.350045 23.009744 
L 256.830617 22.957493 
L 257.570903 22.889337 
L 259.421618 22.843267 
L 260.161904 22.767881 
L 261.642476 22.712819 
L 262.382762 22.637944 
L 264.60362 22.589138 
L 265.343906 22.511245 
L 267.194621 22.452373 
L 267.934907 22.375207 
L 270.155765 22.3141 
L 270.896051 22.236925 
L 273.116909 22.170408 
L 273.857195 22.090946 
L 276.448196 22.01939 
L 277.188482 21.935209 
L 279.40934 21.859228 
L 282.000341 21.775433 
L 282.740627 21.689434 
L 286.442057 21.590283 
L 287.182343 21.502906 
L 290.883773 21.39196 
L 294.21506 21.266885 
L 294.955346 21.17391 
L 297.546347 21.134762 
L 298.286633 21.039581 
L 301.61792 20.973156 
L 302.358206 20.878509 
L 310.501352 20.595769 
L 323.8265 20.1113 
L 343.814223 19.413781 
L 344.554509 19.447244 
L 349.366368 19.241786 
L 350.106654 19.269168 
L 353.808084 19.109484 
L 354.54837 19.135198 
L 357.879657 18.988775 
L 358.619943 19.009458 
L 361.581087 18.87737 
L 362.321373 18.897713 
L 364.912374 18.78088 
L 365.65266 18.797148 
L 367.873518 18.701598 
L 368.613804 18.716851 
L 370.834662 18.615784 
L 371.574948 18.628617 
L 373.425663 18.554438 
L 374.165949 18.562168 
L 376.016664 18.482912 
L 376.75695 18.489398 
L 378.607665 18.407636 
L 379.347951 18.413645 
L 380.828523 18.353406 
L 381.568809 18.358819 
L 383.049381 18.296056 
L 383.789667 18.296614 
L 385.270239 18.233058 
L 386.010525 18.234533 
L 387.491097 18.168303 
L 388.231383 18.168579 
L 389.711955 18.102747 
L 390.822384 18.138873 
L 392.673099 18.029381 
L 393.783528 18.060627 
L 395.634243 17.947851 
L 396.744672 17.978255 
L 398.225244 17.899666 
L 398.96553 17.892106 
L 400.075959 17.85148 
L 401.186388 17.874384 
L 402.66696 17.788548 
L 403.777389 17.807809 
L 405.257961 17.720156 
L 406.36839 17.739432 
L 407.478819 17.684211 
L 408.219105 17.669059 
L 409.329534 17.618634 
L 410.439963 17.632815 
L 411.550392 17.578755 
L 412.660821 17.588239 
L 413.77125 17.528102 
L 414.881679 17.534494 
L 415.992108 17.474651 
L 417.102537 17.479297 
L 418.212966 17.415838 
L 419.323395 17.421679 
L 420.433824 17.357505 
L 421.544253 17.362771 
L 422.654682 17.300662 
L 424.135254 17.318501 
L 425.245683 17.249569 
L 426.726255 17.268455 
L 427.836684 17.196666 
L 429.317256 17.211123 
L 430.427685 17.136035 
L 431.908257 17.148339 
L 433.018686 17.071089 
L 434.499258 17.077458 
L 435.239544 17.049633 
L 436.349973 17.035166 
L 437.090259 17.004583 
L 438.200688 16.958594 
L 439.311117 16.880786 
L 439.311117 16.880786 
" clip-path="url(#pe6ab2107a2)" style="fill: none; stroke: #0f05a0; stroke-width: 1.5; stroke-linecap: square"/>
   </g>
   <g id="line2d_13">
    <path d="M 69.538258 163.20398 
L 69.908401 166.357189 
L 70.278544 165.529662 
L 70.648687 166.055418 
L 71.388973 167.760161 
L 73.239688 173.041291 
L 75.460546 179.953022 
L 76.200832 182.507188 
L 76.570975 184.529618 
L 78.051547 190.422651 
L 79.161976 195.632865 
L 80.642548 203.84778 
L 82.863406 216.481852 
L 83.603692 219.983088 
L 83.973835 220.232797 
L 85.084264 224.777886 
L 86.194693 228.509907 
L 86.564836 228.561114 
L 87.675265 231.80745 
L 88.045408 232.780271 
L 88.415551 232.753814 
L 89.896123 236.336521 
L 90.266266 236.268281 
L 91.006552 237.900662 
L 91.376695 237.839153 
L 92.487124 240.130858 
L 92.857267 240.045078 
L 93.597553 241.49453 
L 93.967696 241.400526 
L 94.707982 242.799102 
L 95.078125 242.706846 
L 95.818411 244.057008 
L 96.188554 243.952932 
L 96.558697 244.625158 
L 96.92884 244.550748 
L 97.669126 245.848118 
L 98.039269 245.756849 
L 98.409412 246.400642 
L 99.149698 246.287039 
L 99.519841 246.275046 
L 99.889984 247.642037 
L 101.000413 247.53069 
L 101.370556 248.872199 
L 102.480985 248.763828 
L 102.851128 250.066116 
L 103.961557 249.958859 
L 104.3317 251.224344 
L 105.442129 251.096804 
L 105.812272 251.110368 
L 106.182415 252.370522 
L 107.292844 252.27946 
L 107.662987 252.29496 
L 108.03313 253.540426 
L 109.143559 253.466274 
L 109.883845 253.517846 
L 110.253988 254.750061 
L 111.364417 254.715768 
L 112.104703 254.778358 
L 112.474846 255.995263 
L 113.955418 256.007507 
L 114.695704 256.099111 
L 115.065847 257.30371 
L 116.546419 257.343993 
L 117.656848 257.517568 
L 118.026991 258.708577 
L 119.507563 258.78016 
L 121.358278 259.132777 
L 121.728421 259.226869 
L 122.098564 260.411676 
L 123.579136 260.549418 
L 125.799994 261.033923 
L 128.390995 261.825584 
L 132.832711 263.420023 
L 144.307144 267.551465 
L 144.677287 266.697571 
L 146.898145 267.826324 
L 148.74886 268.629072 
L 149.119003 267.814249 
L 151.339861 269.033619 
L 152.45029 269.551413 
L 152.820433 268.762972 
L 154.671148 269.839617 
L 155.411434 270.210675 
L 155.781577 269.443939 
L 157.632292 270.56997 
L 158.002435 270.764177 
L 158.372578 270.021289 
L 160.223293 271.183713 
L 160.593436 270.459275 
L 162.444151 271.672481 
L 162.814294 270.961185 
L 164.294866 271.9727 
L 164.665009 271.277738 
L 166.145582 272.333565 
L 166.515725 271.650488 
L 167.996297 272.730124 
L 168.36644 272.055131 
L 169.847012 273.144358 
L 170.217155 272.478786 
L 171.327584 273.321207 
L 171.697727 272.669747 
L 172.808156 273.549032 
L 173.178299 272.911257 
L 174.288728 273.810018 
L 174.658871 273.181105 
L 175.7693 274.096291 
L 176.139443 273.474756 
L 177.249872 274.396141 
L 177.620015 273.777859 
L 178.730444 274.706779 
L 179.100587 274.094975 
L 179.840873 274.73134 
L 180.211016 274.138486 
L 181.321445 275.110018 
L 181.691588 274.514914 
L 182.431874 275.172749 
L 182.802017 274.595056 
L 183.912446 275.586342 
L 184.282589 275.000902 
L 185.022875 275.668641 
L 185.393018 275.098596 
L 186.133304 275.784795 
L 186.503447 275.224575 
L 187.243733 275.925299 
L 187.613876 275.375066 
L 188.354162 276.089505 
L 188.724305 275.544797 
L 189.464591 276.26613 
L 189.834734 275.727798 
L 190.57502 276.454676 
L 190.945163 275.91973 
L 191.685449 276.650706 
L 192.055592 276.120682 
L 192.795878 276.853936 
L 193.166021 276.325144 
L 193.906307 277.060009 
L 194.27645 276.534466 
L 195.016736 277.270583 
L 195.386879 276.745857 
L 195.757022 277.125055 
L 196.127165 276.626793 
L 196.867451 277.401113 
L 197.237594 276.897749 
L 197.97788 277.661271 
L 198.348023 277.155958 
L 198.718166 277.547614 
L 199.088309 277.064055 
L 199.828595 277.854494 
L 200.198738 277.364628 
L 200.568881 277.764372 
L 200.939024 277.295924 
L 201.67931 278.100422 
L 202.049453 277.621165 
L 202.419596 278.027373 
L 202.789739 277.566121 
L 203.530025 278.38074 
L 203.900168 277.908967 
L 204.270311 278.319198 
L 204.640454 277.863529 
L 205.38074 278.682248 
L 205.750883 278.213257 
L 206.121026 278.625771 
L 206.491169 278.172779 
L 206.861312 278.599371 
L 207.231455 278.161955 
L 207.971741 279.005015 
L 208.341884 278.550266 
L 208.712027 278.971336 
L 209.08217 278.530203 
L 209.452313 278.961707 
L 209.822456 278.534136 
L 210.192599 278.976111 
L 210.562742 278.558152 
L 211.303028 279.427277 
L 211.673171 278.989939 
L 212.043314 279.42005 
L 212.413457 278.994096 
L 212.7836 279.432855 
L 213.153743 279.018181 
L 213.523886 279.465704 
L 213.894029 279.057006 
L 214.264172 279.510216 
L 214.634315 279.110113 
L 215.004458 279.569784 
L 215.374601 279.175145 
L 215.744744 279.638461 
L 216.114887 279.250498 
L 216.48503 279.718518 
L 216.855173 279.334059 
L 217.225316 279.8024 
L 217.595459 279.423394 
L 217.965602 279.895089 
L 218.335745 279.518412 
L 218.705888 279.991567 
L 219.076031 279.616979 
L 219.446174 280.092718 
L 219.816317 279.719795 
L 220.18646 280.196331 
L 220.556603 279.826657 
L 220.926746 280.303475 
L 221.296889 279.935025 
L 221.667032 280.413784 
L 222.037175 280.04602 
L 222.407318 280.524683 
L 222.777461 280.159563 
L 223.147604 280.637908 
L 223.517747 280.271317 
L 223.88789 280.751241 
L 224.258033 280.386876 
L 224.628176 280.864465 
L 224.998319 280.502254 
L 225.368462 280.981339 
L 225.738605 280.617395 
L 226.108748 281.095718 
L 226.478891 280.733841 
L 226.849034 281.213493 
L 227.219177 280.85151 
L 227.58932 281.328387 
L 227.959463 280.966657 
L 228.329606 281.446539 
L 229.069892 280.759077 
L 229.440035 281.265801 
L 229.810178 280.934816 
L 230.180321 281.441895 
L 230.550464 281.100297 
L 230.920607 281.597452 
L 231.29075 281.264735 
L 231.660893 281.752193 
L 232.401179 281.109273 
L 232.771322 281.621244 
L 233.141465 281.306315 
L 233.511608 281.823538 
L 233.881751 281.495982 
L 234.251894 282.001626 
L 234.99218 281.381075 
L 235.362323 281.907889 
L 235.732466 281.601402 
L 236.102609 282.114318 
L 236.472752 281.803199 
L 236.842895 282.312213 
L 237.583181 281.702891 
L 237.953324 282.231885 
L 238.323467 281.938734 
L 238.69361 282.452574 
L 239.433896 281.865219 
L 239.804039 282.405617 
L 240.174182 282.116675 
L 240.544325 282.640652 
L 241.284611 282.075925 
L 241.654754 282.615354 
L 242.024897 282.327582 
L 242.39504 282.859313 
L 243.135326 282.294704 
L 243.505469 282.841079 
L 243.875612 282.56146 
L 244.245755 283.090133 
L 244.986041 282.540437 
L 245.356184 283.082736 
L 246.09647 282.553783 
L 246.466613 283.10714 
L 247.206899 282.609787 
L 247.577042 283.171175 
L 247.947185 282.910977 
L 248.317328 283.460641 
L 249.057614 282.941496 
L 249.427757 283.49206 
L 250.168043 282.994614 
L 250.538186 283.561762 
L 251.278472 283.080398 
L 251.648615 283.644512 
L 252.388901 283.176823 
L 252.759044 283.745533 
L 253.49933 283.279831 
L 253.869473 283.86092 
L 254.609759 283.404234 
L 254.979902 283.979358 
L 255.720188 283.530121 
L 256.090331 284.1077 
L 256.830617 283.664429 
L 257.20076 284.235028 
L 257.941046 283.797382 
L 258.311189 284.37795 
L 259.421618 283.75299 
L 259.791761 284.341019 
L 260.532047 283.941673 
L 260.90219 284.535374 
L 261.642476 284.123325 
L 262.012619 284.714896 
L 263.123048 284.128939 
L 263.493191 284.724399 
L 264.60362 284.184793 
L 264.973763 284.796666 
L 265.714049 284.434569 
L 266.084192 285.030899 
L 267.194621 284.499521 
L 267.564764 285.111429 
L 268.675193 284.594802 
L 269.045336 285.211558 
L 270.155765 284.727421 
L 270.525908 285.346503 
L 271.636337 284.864954 
L 272.00648 285.49387 
L 273.116909 285.026169 
L 273.487052 285.646668 
L 274.967624 285.064363 
L 275.337767 285.703252 
L 276.448196 285.286251 
L 276.818339 285.920269 
L 278.298911 285.379492 
L 278.669054 286.027514 
L 280.149626 285.525986 
L 280.519769 286.175797 
L 282.000341 285.693247 
L 282.370484 286.34305 
L 283.851056 285.879981 
L 284.221199 285.798372 
L 284.591342 286.461603 
L 286.071914 286.037755 
L 286.442057 285.967791 
L 286.8122 286.631599 
L 288.662915 286.168542 
L 289.033058 286.846334 
L 290.51363 286.464065 
L 291.253916 286.342548 
L 291.624059 287.021432 
L 293.104631 286.678943 
L 294.21506 286.528759 
L 294.585203 287.216201 
L 296.435918 286.870065 
L 297.546347 286.754034 
L 297.91649 287.455382 
L 299.767205 287.158665 
L 301.61792 287.032406 
L 301.988063 287.737415 
L 303.838778 287.502989 
L 306.059636 287.409505 
L 307.540208 287.428395 
L 307.910351 288.15489 
L 310.131209 287.977488 
L 313.462496 288.0074 
L 317.904212 288.301103 
L 326.047358 289.063041 
L 331.22936 289.585443 
L 331.599503 288.928326 
L 334.93079 289.627824 
L 336.411362 289.865295 
L 336.781505 289.235056 
L 339.372506 289.893412 
L 340.482935 290.109613 
L 340.853078 289.49695 
L 343.44408 290.207822 
L 343.814223 290.295607 
L 344.184366 289.687808 
L 346.405224 290.368052 
L 346.775367 290.458793 
L 347.14551 289.870406 
L 349.366368 290.585321 
L 349.736511 290.003691 
L 351.587226 290.655938 
L 351.957369 290.091429 
L 353.808084 290.783641 
L 354.178227 290.22398 
L 356.028942 290.938853 
L 356.399085 290.381334 
L 357.879657 290.98662 
L 358.2498 290.446405 
L 359.730372 291.076999 
L 360.100515 290.543112 
L 361.581087 291.19567 
L 361.95123 290.665628 
L 363.061659 291.182235 
L 363.431802 290.665882 
L 364.912374 291.364042 
L 365.282517 290.853062 
L 366.392946 291.391809 
L 366.763089 290.884274 
L 367.873518 291.446061 
L 368.243661 290.946353 
L 369.35409 291.51743 
L 369.724233 291.023805 
L 370.834662 291.614406 
L 371.204805 291.124993 
L 372.315234 291.716126 
L 372.685377 291.230196 
L 373.425663 291.639574 
L 373.795806 291.171226 
L 374.906235 291.802933 
L 375.276378 291.332874 
L 376.016664 291.759392 
L 376.386807 291.296958 
L 377.497236 291.950536 
L 377.867379 291.490855 
L 378.607665 291.925783 
L 378.977808 291.472116 
L 379.718094 291.934692 
L 380.088237 291.484344 
L 380.828523 291.956546 
L 381.198666 291.515299 
L 381.938952 291.994947 
L 382.309095 291.56117 
L 383.049381 292.045615 
L 383.419524 291.618216 
L 384.15981 292.112553 
L 384.529953 291.683154 
L 385.270239 292.17967 
L 385.640382 291.755168 
L 386.380668 292.252264 
L 386.750811 291.832152 
L 387.491097 292.336018 
L 387.86124 291.912289 
L 388.601526 292.415165 
L 388.971669 291.995665 
L 389.711955 292.504306 
L 390.082098 292.080976 
L 390.452241 292.344511 
L 390.822384 291.944183 
L 391.56267 292.481732 
L 391.932813 292.080309 
L 392.673099 292.609277 
L 393.043242 292.207551 
L 393.413385 292.474906 
L 393.783528 292.08708 
L 394.523814 292.636047 
L 394.893957 292.244927 
L 395.634243 292.78868 
L 396.004386 292.388305 
L 396.374529 292.661896 
L 396.744672 292.281216 
L 397.484958 292.840222 
L 397.855101 292.448251 
L 398.225244 292.734548 
L 398.595387 292.360914 
L 399.335673 292.92917 
L 399.705816 292.542468 
L 400.075959 292.83282 
L 400.446102 292.463595 
L 400.816245 292.76165 
L 401.186388 292.400836 
L 401.926674 293.000052 
L 402.296817 292.629638 
L 402.66696 292.925538 
L 403.037103 292.563745 
L 403.407246 292.873007 
L 403.777389 292.52488 
L 404.517675 293.129424 
L 404.887818 292.769769 
L 405.257961 293.074204 
L 405.628104 292.721553 
L 405.998247 293.030687 
L 406.36839 292.684139 
L 406.738533 293.004914 
L 407.108676 292.669517 
L 407.478819 292.99299 
L 407.848962 292.660561 
L 408.589248 293.300742 
L 408.959391 292.953091 
L 409.329534 293.265477 
L 409.699677 292.923055 
L 410.06982 293.245778 
L 410.439963 292.914138 
L 410.810106 293.239307 
L 411.180249 292.910494 
L 411.550392 293.23736 
L 411.920535 292.91762 
L 412.290678 293.252226 
L 412.660821 292.933768 
L 413.030964 293.275439 
L 413.401107 292.957186 
L 413.77125 293.298532 
L 414.141393 292.987301 
L 414.511536 293.327831 
L 414.881679 293.023122 
L 415.251822 293.362622 
L 415.621965 293.057164 
L 415.992108 293.4015 
L 416.362251 293.101767 
L 416.732394 293.444943 
L 417.102537 293.143784 
L 417.47268 293.491768 
L 417.842823 293.188567 
L 418.212966 293.541309 
L 418.583109 293.236535 
L 418.953252 293.587242 
L 419.323395 293.287492 
L 419.693538 293.635765 
L 420.063681 293.340846 
L 420.433824 293.693123 
L 420.803967 293.395936 
L 421.17411 293.745497 
L 421.544253 293.446043 
L 421.914396 293.800117 
L 422.284539 293.498059 
L 422.654682 293.849529 
L 423.394968 293.287362 
L 423.765111 293.663789 
L 424.135254 293.39219 
L 424.505397 293.762127 
L 424.87554 293.484608 
L 425.245683 293.855448 
L 425.615826 293.572264 
L 425.985969 293.937416 
L 426.726255 293.405981 
L 427.096398 293.786416 
L 427.466541 293.527716 
L 427.836684 293.907031 
L 428.206827 293.639784 
L 428.57697 294.018661 
L 429.317256 293.501386 
L 429.687399 293.892783 
L 430.057542 293.646064 
L 430.427685 294.027983 
L 430.797828 293.772074 
L 431.167971 294.152541 
L 431.908257 293.647324 
L 432.2784 294.045935 
L 432.648543 293.800589 
L 433.018686 294.189062 
L 433.758972 293.701171 
L 434.129115 294.105814 
L 434.499258 293.867399 
L 434.869401 294.260906 
L 435.609687 293.791058 
L 435.97983 294.192346 
L 436.349973 293.958522 
L 436.720116 294.354524 
L 437.460402 293.89183 
L 437.830545 294.33627 
L 438.570831 294.017399 
L 438.940974 294.491714 
L 439.311117 294.329951 
L 439.311117 294.329951 
" clip-path="url(#pe6ab2107a2)" style="fill: none; stroke: #65cd8c; stroke-width: 1.5; stroke-linecap: square"/>
   </g>
   <g id="line2d_14">
    <path d="M 69.538258 135.641457 
L 69.908401 118.440686 
L 71.388973 109.899476 
L 72.129259 107.127666 
L 73.239688 104.04491 
L 74.350117 101.707242 
L 75.460546 99.820051 
L 76.941118 97.757932 
L 78.42169 96.086035 
L 80.642548 93.99604 
L 83.973835 91.568199 
L 86.934979 89.795156 
L 93.597553 86.759688 
L 97.669126 85.272324 
L 101.000413 84.206583 
L 111.364417 81.508156 
L 126.54028 78.586766 
L 142.456429 76.244058 
L 155.411434 74.697688 
L 176.139443 72.655637 
L 178.730444 72.441193 
L 189.464591 71.54598 
L 192.425735 71.323935 
L 206.121026 70.324284 
L 219.076031 69.470451 
L 222.037175 69.287863 
L 246.466613 67.895433 
L 250.538186 67.684152 
L 265.343906 66.944374 
L 268.675193 66.789898 
L 306.799922 65.160349 
L 317.163926 64.765528 
L 341.963507 63.874927 
L 352.697655 63.516092 
L 381.198666 62.627959 
L 389.711955 62.384543 
L 417.842823 61.605357 
L 430.057542 61.295691 
L 439.311117 60.976575 
L 439.311117 60.976575 
" clip-path="url(#pe6ab2107a2)" style="fill: none; stroke: #960055; stroke-width: 1.5; stroke-linecap: square"/>
   </g>
   <g id="text_13">
    <path d="M 126.0677 129.553281 
L 127.053368 129.530226 
L 127.123265 132.518471 
L 130.70666 132.434653 
L 130.636763 129.446408 
L 131.622431 129.423352 
L 131.792917 136.711984 
L 130.807249 136.735039 
L 130.726062 133.264113 
L 127.142667 133.347931 
L 127.223854 136.818857 
L 126.238187 136.841913 
L 126.0677 129.553281 
z
M 134.673504 135.81469 
L 138.11475 135.734197 
L 138.134151 136.563658 
L 133.507292 136.671883 
L 133.48789 135.842423 
Q 134.035082 135.248214 134.980695 134.247703 
Q 135.927833 133.245594 136.169552 132.955487 
Q 136.630437 132.413311 136.809263 132.040277 
Q 136.989651 131.667207 136.98132 131.311055 
Q 136.967728 130.729964 136.551477 130.373975 
Q 136.13519 130.016424 135.480681 130.031734 
Q 135.016746 130.042585 134.505025 130.215536 
Q 133.994867 130.388451 133.416762 130.730188 
L 133.393451 129.733585 
Q 133.983011 129.480667 134.497207 129.346732 
Q 135.012965 129.212759 135.442535 129.202711 
Q 136.575038 129.176221 137.261554 129.727506 
Q 137.948034 130.277228 137.970176 131.223845 
Q 137.980699 131.673721 137.821422 132.080682 
Q 137.663671 132.486045 137.231268 133.043183 
Q 137.112752 133.188182 136.474064 133.879869 
Q 135.836939 134.571519 134.673504 135.81469 
z
M 142.919944 129.828029 
Q 141.845238 129.853167 141.231343 130.669308 
Q 140.618973 131.48385 140.651309 132.866285 
Q 140.683499 134.242471 141.33332 135.029053 
Q 141.984667 135.814036 143.059373 135.788898 
Q 144.132517 135.763797 144.741763 134.949327 
Q 145.350972 134.133295 145.318782 132.757109 
Q 145.286446 131.374675 144.639786 130.589582 
Q 143.993088 129.802927 142.919944 129.828029 
z
M 142.901237 129.028247 
Q 144.43363 128.992404 145.374609 129.9988 
Q 146.31715 131.005159 146.357561 132.732812 
Q 146.397862 134.455778 145.503405 135.505106 
Q 144.610511 136.554398 143.078117 136.590241 
Q 141.541038 136.626195 140.595446 135.623032 
Q 139.65138 134.618272 139.610969 132.890619 
Q 139.570558 131.162967 140.466576 130.113602 
Q 141.364157 129.064201 142.901237 129.028247 
z
" clip-path="url(#pe6ab2107a2)" style="fill: #add8e6; stroke: #ffffff; stroke-width: 5"/>
    <path d="M 126.0677 129.553281 
L 127.053368 129.530226 
L 127.123265 132.518471 
L 130.70666 132.434653 
L 130.636763 129.446408 
L 131.622431 129.423352 
L 131.792917 136.711984 
L 130.807249 136.735039 
L 130.726062 133.264113 
L 127.142667 133.347931 
L 127.223854 136.818857 
L 126.238187 136.841913 
L 126.0677 129.553281 
z
M 134.673504 135.81469 
L 138.11475 135.734197 
L 138.134151 136.563658 
L 133.507292 136.671883 
L 133.48789 135.842423 
Q 134.035082 135.248214 134.980695 134.247703 
Q 135.927833 133.245594 136.169552 132.955487 
Q 136.630437 132.413311 136.809263 132.040277 
Q 136.989651 131.667207 136.98132 131.311055 
Q 136.967728 130.729964 136.551477 130.373975 
Q 136.13519 130.016424 135.480681 130.031734 
Q 135.016746 130.042585 134.505025 130.215536 
Q 133.994867 130.388451 133.416762 130.730188 
L 133.393451 129.733585 
Q 133.983011 129.480667 134.497207 129.346732 
Q 135.012965 129.212759 135.442535 129.202711 
Q 136.575038 129.176221 137.261554 129.727506 
Q 137.948034 130.277228 137.970176 131.223845 
Q 137.980699 131.673721 137.821422 132.080682 
Q 137.663671 132.486045 137.231268 133.043183 
Q 137.112752 133.188182 136.474064 133.879869 
Q 135.836939 134.571519 134.673504 135.81469 
z
M 142.919944 129.828029 
Q 141.845238 129.853167 141.231343 130.669308 
Q 140.618973 131.48385 140.651309 132.866285 
Q 140.683499 134.242471 141.33332 135.029053 
Q 141.984667 135.814036 143.059373 135.788898 
Q 144.132517 135.763797 144.741763 134.949327 
Q 145.350972 134.133295 145.318782 132.757109 
Q 145.286446 131.374675 144.639786 130.589582 
Q 143.993088 129.802927 142.919944 129.828029 
z
M 142.901237 129.028247 
Q 144.43363 128.992404 145.374609 129.9988 
Q 146.31715 131.005159 146.357561 132.732812 
Q 146.397862 134.455778 145.503405 135.505106 
Q 144.610511 136.554398 143.078117 136.590241 
Q 141.541038 136.626195 140.595446 135.623032 
Q 139.65138 134.618272 139.610969 132.890619 
Q 139.570558 131.162967 140.466576 130.113602 
Q 141.364157 129.064201 142.901237 129.028247 
z
" clip-path="url(#pe6ab2107a2)" style="fill: #add8e6"/>
   </g>
   <g id="text_14">
    <path d="M 175.535922 25.34815 
L 175.754072 26.364054 
Q 175.169314 26.014981 174.569929 25.910364 
Q 173.970215 25.804219 173.349979 25.937405 
Q 172.127838 26.19984 171.638989 27.086292 
Q 171.15014 27.972744 171.453581 29.385844 
Q 171.756037 30.794362 172.565713 31.401976 
Q 173.375389 32.009591 174.597529 31.747156 
Q 175.217766 31.61397 175.721034 31.270978 
Q 176.224303 30.927986 176.614202 30.36962 
L 176.830711 31.377886 
Q 176.39886 31.830196 175.869162 32.124528 
Q 175.340663 32.417004 174.71126 32.552158 
Q 173.091924 32.899884 171.947469 32.110057 
Q 170.804214 31.318374 170.436149 29.604322 
Q 170.0671 27.885686 170.784882 26.695974 
Q 171.503864 25.504405 173.1232 25.156679 
Q 173.761768 25.019556 174.363421 25.067752 
Q 174.966602 25.11562 175.535922 25.34815 
z
M 179.940749 24.510956 
Q 178.889708 24.73665 178.439286 25.653206 
Q 177.990064 26.567905 178.280382 27.919899 
Q 178.569389 29.265781 179.354857 29.916949 
Q 180.141524 30.566261 181.192565 30.340567 
Q 182.242078 30.115201 182.688245 29.201157 
Q 183.134084 28.285586 182.845078 26.939704 
Q 182.554759 25.587711 181.772675 24.937414 
Q 180.990263 24.28559 179.940749 24.510956 
z
M 179.772791 23.728786 
Q 181.271441 23.406975 182.38404 24.219624 
Q 183.498166 25.031945 183.860982 26.721555 
Q 184.222815 28.406581 183.540394 29.604681 
Q 182.859501 30.802454 181.360851 31.124265 
Q 179.857618 31.44706 178.741093 30.63845 
Q 177.625767 29.827985 177.26295 28.138376 
Q 176.900134 26.448766 177.584082 25.250338 
Q 178.269558 24.051581 179.772791 23.728786 
z
M 186.875662 28.946018 
L 190.241132 28.223338 
L 190.415324 29.034534 
L 185.890348 30.0062 
L 185.716156 29.195004 
Q 186.14256 28.508941 186.884363 27.349228 
Q 187.627367 26.18766 187.810563 25.857464 
Q 188.161914 25.238657 188.267817 24.838761 
Q 188.375247 24.438536 188.300453 24.090226 
Q 188.178421 23.52193 187.702935 23.250074 
Q 187.227122 22.976689 186.587025 23.11414 
Q 186.133306 23.211569 185.662961 23.477174 
Q 185.194144 23.742451 184.690155 24.186279 
L 184.480863 23.211622 
Q 185.012717 22.852903 185.49279 22.625161 
Q 185.974391 22.397092 186.394502 22.30688 
Q 187.502067 22.069048 188.279575 22.482208 
Q 189.056755 22.89384 189.25555 23.819611 
Q 189.350026 24.259582 189.269673 24.689151 
Q 189.190519 25.116864 188.869946 25.745043 
Q 188.78064 25.909649 188.282587 26.708583 
Q 187.786061 27.507189 186.875662 28.946018 
z
" clip-path="url(#pe6ab2107a2)" style="fill: #0f05a0; stroke: #ffffff; stroke-width: 5"/>
    <path d="M 175.535922 25.34815 
L 175.754072 26.364054 
Q 175.169314 26.014981 174.569929 25.910364 
Q 173.970215 25.804219 173.349979 25.937405 
Q 172.127838 26.19984 171.638989 27.086292 
Q 171.15014 27.972744 171.453581 29.385844 
Q 171.756037 30.794362 172.565713 31.401976 
Q 173.375389 32.009591 174.597529 31.747156 
Q 175.217766 31.61397 175.721034 31.270978 
Q 176.224303 30.927986 176.614202 30.36962 
L 176.830711 31.377886 
Q 176.39886 31.830196 175.869162 32.124528 
Q 175.340663 32.417004 174.71126 32.552158 
Q 173.091924 32.899884 171.947469 32.110057 
Q 170.804214 31.318374 170.436149 29.604322 
Q 170.0671 27.885686 170.784882 26.695974 
Q 171.503864 25.504405 173.1232 25.156679 
Q 173.761768 25.019556 174.363421 25.067752 
Q 174.966602 25.11562 175.535922 25.34815 
z
M 179.940749 24.510956 
Q 178.889708 24.73665 178.439286 25.653206 
Q 177.990064 26.567905 178.280382 27.919899 
Q 178.569389 29.265781 179.354857 29.916949 
Q 180.141524 30.566261 181.192565 30.340567 
Q 182.242078 30.115201 182.688245 29.201157 
Q 183.134084 28.285586 182.845078 26.939704 
Q 182.554759 25.587711 181.772675 24.937414 
Q 180.990263 24.28559 179.940749 24.510956 
z
M 179.772791 23.728786 
Q 181.271441 23.406975 182.38404 24.219624 
Q 183.498166 25.031945 183.860982 26.721555 
Q 184.222815 28.406581 183.540394 29.604681 
Q 182.859501 30.802454 181.360851 31.124265 
Q 179.857618 31.44706 178.741093 30.63845 
Q 177.625767 29.827985 177.26295 28.138376 
Q 176.900134 26.448766 177.584082 25.250338 
Q 178.269558 24.051581 179.772791 23.728786 
z
M 186.875662 28.946018 
L 190.241132 28.223338 
L 190.415324 29.034534 
L 185.890348 30.0062 
L 185.716156 29.195004 
Q 186.14256 28.508941 186.884363 27.349228 
Q 187.627367 26.18766 187.810563 25.857464 
Q 188.161914 25.238657 188.267817 24.838761 
Q 188.375247 24.438536 188.300453 24.090226 
Q 188.178421 23.52193 187.702935 23.250074 
Q 187.227122 22.976689 186.587025 23.11414 
Q 186.133306 23.211569 185.662961 23.477174 
Q 185.194144 23.742451 184.690155 24.186279 
L 184.480863 23.211622 
Q 185.012717 22.852903 185.49279 22.625161 
Q 185.974391 22.397092 186.394502 22.30688 
Q 187.502067 22.069048 188.279575 22.482208 
Q 189.056755 22.89384 189.25555 23.819611 
Q 189.350026 24.259582 189.269673 24.689151 
Q 189.190519 25.116864 188.869946 25.745043 
Q 188.78064 25.909649 188.282587 26.708583 
Q 187.786061 27.507189 186.875662 28.946018 
z
" clip-path="url(#pe6ab2107a2)" style="fill: #0f05a0"/>
   </g>
   <g id="text_15">
    <path d="M 132.151755 258.440826 
L 133.402612 258.887226 
L 134.397578 265.717457 
L 136.447344 259.973817 
L 137.347961 260.295226 
L 134.897485 267.161694 
L 133.646628 266.715293 
L 132.653134 259.885587 
L 130.603367 265.629227 
L 129.701279 265.307293 
L 132.151755 258.440826 
z
M 139.197022 260.955111 
L 140.125599 261.286497 
L 139.120935 264.101661 
L 142.496777 265.306417 
L 143.501441 262.491254 
L 144.430018 262.82264 
L 141.979542 269.689108 
L 141.050965 269.357721 
L 142.217908 266.087835 
L 138.842066 264.883079 
L 137.675123 268.152965 
L 136.746546 267.821579 
L 139.197022 260.955111 
z
M 148.047521 267.680531 
Q 148.663212 268.061181 148.875768 268.646356 
Q 149.090321 269.230584 148.853991 269.892803 
Q 148.491619 270.908204 147.593568 271.21648 
Q 146.696043 271.523284 145.408397 271.063754 
Q 144.977219 270.909877 144.550013 270.661195 
Q 144.122807 270.412512 143.696629 270.067973 
L 144.016462 269.171771 
Q 144.321668 269.534522 144.739842 269.813161 
Q 145.159488 270.092326 145.661302 270.271412 
Q 146.533959 270.582842 147.114516 270.401818 
Q 147.695074 270.220795 147.929828 269.562991 
Q 148.146727 268.955222 147.843276 268.462036 
Q 147.540351 267.967378 146.782479 267.696911 
L 145.981931 267.411215 
L 146.254498 266.647457 
L 147.091836 266.946282 
Q 147.776128 267.19049 148.237295 267.046492 
Q 148.698463 266.902493 148.882275 266.387435 
Q 149.070813 265.859132 148.79639 265.442665 
Q 148.523964 265.025252 147.824956 264.775793 
Q 147.442341 264.639247 146.975342 264.56715 
Q 146.508868 264.493582 145.923008 264.480267 
L 146.218158 263.65323 
Q 146.80045 263.695135 147.28879 263.78646 
Q 147.77713 263.877786 148.186234 264.023785 
Q 149.244312 264.401388 149.687706 265.102124 
Q 150.133097 265.801913 149.841099 266.620121 
Q 149.63733 267.1911 149.170413 267.467427 
Q 148.703497 267.743754 148.047521 267.680531 
z
" clip-path="url(#pe6ab2107a2)" style="fill: #65cd8c; stroke: #ffffff; stroke-width: 5"/>
    <path d="M 132.151755 258.440826 
L 133.402612 258.887226 
L 134.397578 265.717457 
L 136.447344 259.973817 
L 137.347961 260.295226 
L 134.897485 267.161694 
L 133.646628 266.715293 
L 132.653134 259.885587 
L 130.603367 265.629227 
L 129.701279 265.307293 
L 132.151755 258.440826 
z
M 139.197022 260.955111 
L 140.125599 261.286497 
L 139.120935 264.101661 
L 142.496777 265.306417 
L 143.501441 262.491254 
L 144.430018 262.82264 
L 141.979542 269.689108 
L 141.050965 269.357721 
L 142.217908 266.087835 
L 138.842066 264.883079 
L 137.675123 268.152965 
L 136.746546 267.821579 
L 139.197022 260.955111 
z
M 148.047521 267.680531 
Q 148.663212 268.061181 148.875768 268.646356 
Q 149.090321 269.230584 148.853991 269.892803 
Q 148.491619 270.908204 147.593568 271.21648 
Q 146.696043 271.523284 145.408397 271.063754 
Q 144.977219 270.909877 144.550013 270.661195 
Q 144.122807 270.412512 143.696629 270.067973 
L 144.016462 269.171771 
Q 144.321668 269.534522 144.739842 269.813161 
Q 145.159488 270.092326 145.661302 270.271412 
Q 146.533959 270.582842 147.114516 270.401818 
Q 147.695074 270.220795 147.929828 269.562991 
Q 148.146727 268.955222 147.843276 268.462036 
Q 147.540351 267.967378 146.782479 267.696911 
L 145.981931 267.411215 
L 146.254498 266.647457 
L 147.091836 266.946282 
Q 147.776128 267.19049 148.237295 267.046492 
Q 148.698463 266.902493 148.882275 266.387435 
Q 149.070813 265.859132 148.79639 265.442665 
Q 148.523964 265.025252 147.824956 264.775793 
Q 147.442341 264.639247 146.975342 264.56715 
Q 146.508868 264.493582 145.923008 264.480267 
L 146.218158 263.65323 
Q 146.80045 263.695135 147.28879 263.78646 
Q 147.77713 263.877786 148.186234 264.023785 
Q 149.244312 264.401388 149.687706 265.102124 
Q 150.133097 265.801913 149.841099 266.620121 
Q 149.63733 267.1911 149.170413 267.467427 
Q 148.703497 267.743754 148.047521 267.680531 
z
" clip-path="url(#pe6ab2107a2)" style="fill: #65cd8c"/>
   </g>
   <g id="text_16">
    <path d="M 213.131756 65.937869 
L 213.213904 66.973679 
Q 212.680338 66.550475 212.100006 66.367658 
Q 211.51955 66.183284 210.887161 66.233437 
Q 209.641073 66.33226 209.039495 67.146431 
Q 208.437917 67.960602 208.552182 69.401391 
Q 208.666076 70.837506 209.388466 71.546677 
Q 210.110856 72.255848 211.356943 72.157025 
Q 211.989332 72.106872 212.53347 71.833309 
Q 213.077609 71.559746 213.537798 71.057731 
L 213.619327 72.085753 
Q 213.131553 72.477103 212.567638 72.698942 
Q 212.005158 72.9191 211.363423 72.969995 
Q 209.712357 73.100936 208.682169 72.166958 
Q 207.653414 71.231299 207.514814 69.483661 
Q 207.375843 67.731351 208.24438 66.646791 
Q 209.114351 65.560549 210.765417 65.429608 
Q 211.416498 65.377973 212.006525 65.505161 
Q 212.59811 65.632227 213.131756 65.937869 
z
M 214.605566 65.256719 
L 215.588417 65.178772 
L 215.824729 68.158479 
L 219.397885 67.875102 
L 219.161573 64.895395 
L 220.144424 64.817448 
L 220.720813 72.085253 
L 219.737961 72.1632 
L 219.463479 68.702193 
L 215.890323 68.985569 
L 216.164805 72.446577 
L 215.181954 72.524524 
L 214.605566 65.256719 
z
M 224.95918 65.297678 
L 222.784062 69.374588 
L 225.266892 69.177682 
L 224.95918 65.297678 
z
M 224.632675 64.461498 
L 225.869417 64.363416 
L 226.24507 69.100106 
L 227.282438 69.017835 
L 227.347291 69.83558 
L 226.309923 69.917851 
L 226.445806 71.631221 
L 225.467627 71.708797 
L 225.331745 69.995427 
L 222.051419 70.25558 
L 221.97619 69.306996 
L 224.632675 64.461498 
z
" clip-path="url(#pe6ab2107a2)" style="fill: #960055; stroke: #ffffff; stroke-width: 5"/>
    <path d="M 213.131756 65.937869 
L 213.213904 66.973679 
Q 212.680338 66.550475 212.100006 66.367658 
Q 211.51955 66.183284 210.887161 66.233437 
Q 209.641073 66.33226 209.039495 67.146431 
Q 208.437917 67.960602 208.552182 69.401391 
Q 208.666076 70.837506 209.388466 71.546677 
Q 210.110856 72.255848 211.356943 72.157025 
Q 211.989332 72.106872 212.53347 71.833309 
Q 213.077609 71.559746 213.537798 71.057731 
L 213.619327 72.085753 
Q 213.131553 72.477103 212.567638 72.698942 
Q 212.005158 72.9191 211.363423 72.969995 
Q 209.712357 73.100936 208.682169 72.166958 
Q 207.653414 71.231299 207.514814 69.483661 
Q 207.375843 67.731351 208.24438 66.646791 
Q 209.114351 65.560549 210.765417 65.429608 
Q 211.416498 65.377973 212.006525 65.505161 
Q 212.59811 65.632227 213.131756 65.937869 
z
M 214.605566 65.256719 
L 215.588417 65.178772 
L 215.824729 68.158479 
L 219.397885 67.875102 
L 219.161573 64.895395 
L 220.144424 64.817448 
L 220.720813 72.085253 
L 219.737961 72.1632 
L 219.463479 68.702193 
L 215.890323 68.985569 
L 216.164805 72.446577 
L 215.181954 72.524524 
L 214.605566 65.256719 
z
M 224.95918 65.297678 
L 222.784062 69.374588 
L 225.266892 69.177682 
L 224.95918 65.297678 
z
M 224.632675 64.461498 
L 225.869417 64.363416 
L 226.24507 69.100106 
L 227.282438 69.017835 
L 227.347291 69.83558 
L 226.309923 69.917851 
L 226.445806 71.631221 
L 225.467627 71.708797 
L 225.331745 69.995427 
L 222.051419 70.25558 
L 221.97619 69.306996 
L 224.632675 64.461498 
z
" clip-path="url(#pe6ab2107a2)" style="fill: #960055"/>
   </g>
   <g id="patch_3">
    <path d="M 51.049615 308.37226 
L 51.049615 3.00024 
" style="fill: none; stroke: #000000; stroke-width: 0.8; stroke-linejoin: miter; stroke-linecap: square"/>
   </g>
   <g id="patch_4">
    <path d="M 457.79976 308.37226 
L 457.79976 3.00024 
" style="fill: none; stroke: #000000; stroke-width: 0.8; stroke-linejoin: miter; stroke-linecap: square"/>
   </g>
   <g id="patch_5">
    <path d="M 51.049615 308.37226 
L 457.79976 308.37226 
" style="fill: none; stroke: #000000; stroke-width: 0.8; stroke-linejoin: miter; stroke-linecap: square"/>
   </g>
   <g id="patch_6">
    <path d="M 51.049615 3.00024 
L 457.79976 3.00024 
" style="fill: none; stroke: #000000; stroke-width: 0.8; stroke-linejoin: miter; stroke-linecap: square"/>
   </g>
  </g>
 </g>
 <defs>
  <clipPath id="pe6ab2107a2">
   <rect x="51.049615" y="3.00024" width="406.750145" height="305.37202"/>
  </clipPath>
 </defs>
</svg>
